<svg id="Capa_1" data-name="Capa 1" xmlns="http://www.w3.org/2000/svg" xmlns:xlink="http://www.w3.org/1999/xlink" viewBox="0 0 533.5 142.59">
  <defs>
    <clipPath id="clip-path" transform="translate(-150.22 -221.49)">
      <rect x="140.72" y="217.57" width="543" height="156" fill="none"/>
    </clipPath>
    <clipPath id="clip-path-4" transform="translate(-150.22 -221.49)">
      <rect x="140.72" y="217.57" width="543" height="156" fill="none"/>
    </clipPath>
  </defs>
  <g clip-path="url(#clip-path)">
    <g clip-path="url(#clip-path)">
      <polygon points="140.04 99.53 96.91 99.53 96.91 142.59 140.04 99.53" fill="#edbd51"/>
      <polygon points="0 45.84 43.13 45.84 43.13 2.78 0 45.84" fill="#edbd51"/>
      <polygon points="98.13 95.6 142.82 95.6 142.82 6.36 118.12 55.69 98.13 95.6" fill="#eb5e60"/>
      <polygon points="140.39 2.43 47.31 48.89 94.56 93.94 108.56 65.98 140.39 2.43" fill="#0790a6"/>
      <polygon points="136.46 0 47.06 0 47.06 44.62 68.17 34.09 136.46 0" fill="#16af96"/>
    </g>
  </g>
  <g clip-path="url(#clip-path)">
    <g clip-path="url(#clip-path-4)">
      <path d="M382.62,268.67V245.08a11.71,11.71,0,0,0-11.7-11.69l-23.63-.11v82.41H359V280.35H365l5.88,35.33h11.7L376.8,278.8a11,11,0,0,0,5.82-10.13m-13-1.24a4.26,4.26,0,0,1-3.19,1.36H359V245h7.44a4.25,4.25,0,0,1,3.19,1.35,4.51,4.51,0,0,1,1.3,3.25V264.3a4.36,4.36,0,0,1-1.3,3.13" transform="translate(-150.22 -221.49)" fill="#0790a6"/>
      <path d="M427.41,250.88a17.74,17.74,0,0,0-17.69-17.72,17.43,17.43,0,0,0-6.55,1.22L392.76,255.2,392,298a17.7,17.7,0,0,0,17.7,17.67,17.69,17.69,0,0,0,6-1l11.72-23.44Zm-13.48,51.31a5.81,5.81,0,0,1-4.21,1.7,5.81,5.81,0,0,1-5.88-5.87V250.88a5.76,5.76,0,0,1,1.7-4.2,5.62,5.62,0,0,1,4.18-1.72,5.87,5.87,0,0,1,5.93,5.93V298a5.62,5.62,0,0,1-1.73,4.17" transform="translate(-150.22 -221.49)" fill="#0790a6"/>
      <path d="M461,292.09V298a5.62,5.62,0,0,1-1.73,4.17,5.81,5.81,0,0,1-4.21,1.7,5.81,5.81,0,0,1-5.88-5.87V250.89a5.76,5.76,0,0,1,1.7-4.21A5.61,5.61,0,0,1,455,245a5.89,5.89,0,0,1,6,5.92v5.87h11.75v-5.87a17.7,17.7,0,0,0-35.39,0V298a17.7,17.7,0,0,0,35.4,0v-5.93Z" transform="translate(-150.22 -221.49)" fill="#0790a6"/>
      <polygon points="367.12 11.66 355.3 11.66 343.48 41.13 343.48 11.66 331.67 11.66 331.67 94.19 343.48 94.19 343.48 70.6 346.42 63.28 355.3 94.19 367.12 94.19 353.51 45.62 367.12 11.66" fill="#0790a6"/>
      <polygon points="384.19 82.39 384.18 58.85 401.88 58.85 401.88 47.06 384.18 47.06 384.18 23.46 407.82 23.46 407.82 11.66 378.18 11.66 372.36 23.29 372.37 94.19 401.31 94.19 407.21 82.39 384.19 82.39" fill="#0790a6"/>
      <polygon points="448.88 11.68 413.48 11.69 413.48 23.48 425.3 23.48 425.3 94.21 437.06 94.21 437.06 23.48 448.88 23.48 448.88 11.68" fill="#0790a6"/>
      <polygon points="489.63 11.68 454.18 11.68 454.18 94.21 466 94.21 466 58.87 483.69 58.87 483.69 47.08 466 47.08 466 23.48 486.36 23.48 489.63 16.94 489.63 11.68" fill="#0790a6"/>
      <polygon points="533.5 11.68 521.57 11.68 512.87 46.96 503.99 11.68 498.2 11.68 494.1 19.87 506.81 70.73 506.81 94.32 518.75 94.32 518.74 70.73 533.5 11.68" fill="#0790a6"/>
    </g>
  </g>
</svg>
